<?xml version="1.0" standalone="no"?><!DOCTYPE svg PUBLIC "-//W3C//DTD SVG 1.1//EN" "http://www.w3.org/Graphics/SVG/1.1/DTD/svg11.dtd"><svg xmlns:xlink="http://www.w3.org/1999/xlink" version="1.1" style="font-family:open sans;font-size:12px;" xmlns="http://www.w3.org/2000/svg" width="1040" height="410"><desc>Created with Highcharts 4.1.5</desc><defs><clipPath id="highcharts-63"><rect x="0" y="0" width="826" height="196"></rect></clipPath></defs><rect x="0" y="0" width="1040" height="410" strokeWidth="0" fill="#FFFFFF" class=" highcharts-background"></rect><g class="highcharts-grid" ></g><g class="highcharts-grid" ></g><g class="highcharts-grid" ><path fill="none" d="M 128 332.5 L 954 332.5" stroke="#D8D8D8" stroke-width="1"  opacity="1"></path><path fill="none" d="M 128 267.5 L 954 267.5" stroke="#D8D8D8" stroke-width="1"  opacity="1"></path><path fill="none" d="M 128 201.5 L 954 201.5" stroke="#D8D8D8" stroke-width="1"  opacity="1"></path><path fill="none" d="M 128 135.5 L 954 135.5" stroke="#D8D8D8" stroke-width="1"  opacity="1"></path></g><g class="highcharts-grid" ><path fill="none" d="M 128 332.5 L 954 332.5" stroke="#D8D8D8" stroke-width="1"  opacity="1"></path><path fill="none" d="M 128 267.5 L 954 267.5" stroke="#D8D8D8" stroke-width="1"  opacity="1"></path><path fill="none" d="M 128 201.5 L 954 201.5" stroke="#D8D8D8" stroke-width="1"  opacity="1"></path><path fill="none" d="M 128 135.5 L 954 135.5" stroke="#D8D8D8" stroke-width="1"  opacity="1"></path></g><g class="highcharts-axis" ><path fill="none" d="M 202.5 332 L 202.5 342" stroke="#C0D0E0" stroke-width="1" opacity="1"></path><path fill="none" d="M 277.5 332 L 277.5 342" stroke="#C0D0E0" stroke-width="1" opacity="1"></path><path fill="none" d="M 352.5 332 L 352.5 342" stroke="#C0D0E0" stroke-width="1" opacity="1"></path><path fill="none" d="M 427.5 332 L 427.5 342" stroke="#C0D0E0" stroke-width="1" opacity="1"></path><path fill="none" d="M 502.5 332 L 502.5 342" stroke="#C0D0E0" stroke-width="1" opacity="1"></path><path fill="none" d="M 578.5 332 L 578.5 342" stroke="#C0D0E0" stroke-width="1" opacity="1"></path><path fill="none" d="M 653.5 332 L 653.5 342" stroke="#C0D0E0" stroke-width="1" opacity="1"></path><path fill="none" d="M 728.5 332 L 728.5 342" stroke="#C0D0E0" stroke-width="1" opacity="1"></path><path fill="none" d="M 803.5 332 L 803.5 342" stroke="#C0D0E0" stroke-width="1" opacity="1"></path><path fill="none" d="M 878.5 332 L 878.5 342" stroke="#C0D0E0" stroke-width="1" opacity="1"></path><path fill="none" d="M 954.5 332 L 954.5 342" stroke="#C0D0E0" stroke-width="1" opacity="1"></path><path fill="none" d="M 127.5 332 L 127.5 342" stroke="#C0D0E0" stroke-width="1" opacity="1"></path><path fill="none" d="M 128 332.5 L 954 332.5" stroke="#C0D0E0" stroke-width="1"  visibility="visible"></path></g><g class="highcharts-axis" ><path fill="none" d="M 202.5 136 L 202.5 126" stroke="#C0D0E0" stroke-width="1" opacity="1"></path><path fill="none" d="M 277.5 136 L 277.5 126" stroke="#C0D0E0" stroke-width="1" opacity="1"></path><path fill="none" d="M 352.5 136 L 352.5 126" stroke="#C0D0E0" stroke-width="1" opacity="1"></path><path fill="none" d="M 427.5 136 L 427.5 126" stroke="#C0D0E0" stroke-width="1" opacity="1"></path><path fill="none" d="M 502.5 136 L 502.5 126" stroke="#C0D0E0" stroke-width="1" opacity="1"></path><path fill="none" d="M 578.5 136 L 578.5 126" stroke="#C0D0E0" stroke-width="1" opacity="1"></path><path fill="none" d="M 653.5 136 L 653.5 126" stroke="#C0D0E0" stroke-width="1" opacity="1"></path><path fill="none" d="M 728.5 136 L 728.5 126" stroke="#C0D0E0" stroke-width="1" opacity="1"></path><path fill="none" d="M 803.5 136 L 803.5 126" stroke="#C0D0E0" stroke-width="1" opacity="1"></path><path fill="none" d="M 878.5 136 L 878.5 126" stroke="#C0D0E0" stroke-width="1" opacity="1"></path><path fill="none" d="M 954.5 136 L 954.5 126" stroke="#C0D0E0" stroke-width="1" opacity="1"></path><path fill="none" d="M 127.5 136 L 127.5 126" stroke="#C0D0E0" stroke-width="1" opacity="1"></path><path fill="none" d="M 128 135.5 L 954 135.5" stroke="#C0D0E0" stroke-width="1"  visibility="visible"></path></g><g class="highcharts-axis" ><text x="1012.90625"  text-anchor="middle" transform="translate(0,0) rotate(90 1012.90625 234)" class=" highcharts-yaxis-title" style="color:#000000;fill:#000000;" visibility="visible" y="234"><tspan>Nicholas Cage</tspan></text></g><g class="highcharts-axis" ><text x="27.296875"  text-anchor="middle" transform="translate(0,0) rotate(270 27.296875 234)" class=" highcharts-yaxis-title" style="color:#ba0f27;fill:#ba0f27;" visibility="visible" y="234"><tspan>Swimming pool drownings</tspan></text></g><g class="highcharts-series-group" ><g class="highcharts-series" visibility="visible"  transform="translate(128,136) scale(1 1)" clip-path="url(#highcharts-63)"><path fill="none" d="M 37.54545454545455 130.66666666666669 C 37.54545454545455 130.66666666666669 82.6 130.66666666666669 112.63636363636364 130.66666666666669 C 142.6727272727273 130.66666666666669 157.6909090909091 130.66666666666669 187.72727272727275 130.66666666666669 C 217.7636363636364 130.66666666666669 232.7818181818182 98 262.8181818181818 98 C 292.8545454545455 98 307.8727272727273 163.33333333333334 337.90909090909093 163.33333333333334 C 367.9454545454546 163.33333333333334 382.9636363636364 163.33333333333334 413.00000000000006 163.33333333333334 C 443.0363636363637 163.33333333333334 458.0545454545455 143.73333333333335 488.0909090909091 130.66666666666669 C 518.1272727272728 117.59999999999998 533.1454545454546 111.06666666666662 563.1818181818181 98 C 593.2181818181818 84.93333333333328 608.2363636363636 65.33333333333334 638.2727272727273 65.33333333333334 C 668.3090909090909 65.33333333333334 683.3272727272727 163.33333333333334 713.3636363636364 163.33333333333334 C 743.4 163.33333333333334 788.4545454545455 65.33333333333334 788.4545454545455 65.33333333333334" stroke="#000000" stroke-width="2"  stroke-linejoin="round" stroke-linecap="round"></path></g><g class="highcharts-markers" visibility="visible"  transform="translate(128,136) scale(1 1)" clip-path="none"><path fill="#000000" d="M 788 61.33333333333334 C 793.328 61.33333333333334 793.328 69.33333333333334 788 69.33333333333334 C 782.672 69.33333333333334 782.672 61.33333333333334 788 61.33333333333334 Z"></path><path fill="#000000" d="M 713 159.33333333333334 C 718.328 159.33333333333334 718.328 167.33333333333334 713 167.33333333333334 C 707.672 167.33333333333334 707.672 159.33333333333334 713 159.33333333333334 Z"></path><path fill="#000000" d="M 638 61.33333333333334 C 643.328 61.33333333333334 643.328 69.33333333333334 638 69.33333333333334 C 632.672 69.33333333333334 632.672 61.33333333333334 638 61.33333333333334 Z"></path><path fill="#000000" d="M 563 94 C 568.328 94 568.328 102 563 102 C 557.672 102 557.672 94 563 94 Z"></path><path fill="#000000" d="M 488 126.66666666666669 C 493.328 126.66666666666669 493.328 134.66666666666669 488 134.66666666666669 C 482.672 134.66666666666669 482.672 126.66666666666669 488 126.66666666666669 Z"></path><path fill="#000000" d="M 413 159.33333333333334 C 418.328 159.33333333333334 418.328 167.33333333333334 413 167.33333333333334 C 407.672 167.33333333333334 407.672 159.33333333333334 413 159.33333333333334 Z"></path><path fill="#000000" d="M 337 159.33333333333334 C 342.328 159.33333333333334 342.328 167.33333333333334 337 167.33333333333334 C 331.672 167.33333333333334 331.672 159.33333333333334 337 159.33333333333334 Z"></path><path fill="#000000" d="M 262 94 C 267.328 94 267.328 102 262 102 C 256.672 102 256.672 94 262 94 Z"></path><path fill="#000000" d="M 187 126.66666666666669 C 192.328 126.66666666666669 192.328 134.66666666666669 187 134.66666666666669 C 181.672 134.66666666666669 181.672 126.66666666666669 187 126.66666666666669 Z"></path><path fill="#000000" d="M 112 126.66666666666669 C 117.328 126.66666666666669 117.328 134.66666666666669 112 134.66666666666669 C 106.672 134.66666666666669 106.672 126.66666666666669 112 126.66666666666669 Z"></path><path fill="#000000" d="M 37 126.66666666666669 C 42.328 126.66666666666669 42.328 134.66666666666669 37 134.66666666666669 C 31.672 134.66666666666669 31.672 126.66666666666669 37 126.66666666666669 Z"></path></g><g class="highcharts-series" visibility="visible"  transform="translate(128,136) scale(1 1)" clip-path="url(#highcharts-63)"><path fill="none" d="M 37.54545454545455 101.26666666666667 C 37.54545454545455 101.26666666666667 82.6 124.13333333333334 112.63636363636364 124.13333333333334 C 142.6727272727273 124.13333333333334 157.6909090909091 124.13333333333334 187.72727272727275 124.13333333333334 C 217.7636363636364 124.13333333333334 232.7818181818182 126.09333333333333 262.8181818181818 137.2 C 292.8545454545455 148.30666666666667 307.8727272727273 179.66666666666666 337.90909090909093 179.66666666666666 C 367.9454545454546 179.66666666666666 382.9636363636364 150.26666666666665 413.00000000000006 147 C 443.0363636363637 143.73333333333335 458.0545454545455 145.69333333333336 488.0909090909091 143.73333333333335 C 518.1272727272728 141.77333333333334 533.1454545454546 143.73333333333335 563.1818181818181 137.2 C 593.2181818181818 130.66666666666663 608.2363636363636 55.53333333333333 638.2727272727273 55.53333333333333 C 668.3090909090909 55.53333333333333 683.3272727272727 150.26666666666665 713.3636363636364 150.26666666666665 C 743.4 150.26666666666665 788.4545454545455 124.13333333333334 788.4545454545455 124.13333333333334" stroke="#ba0f27" stroke-width="2"  stroke-linejoin="round" stroke-linecap="round"></path></g><g class="highcharts-markers" visibility="visible"  transform="translate(128,136) scale(1 1)" clip-path="none"><path fill="#ba0f27" d="M 788 120.13333333333334 L 792 124.13333333333334 788 128.13333333333333 784 124.13333333333334 Z"></path><path fill="#ba0f27" d="M 713 146.26666666666665 L 717 150.26666666666665 713 154.26666666666665 709 150.26666666666665 Z"></path><path fill="#ba0f27" d="M 638 51.53333333333333 L 642 55.53333333333333 638 59.53333333333333 634 55.53333333333333 Z"></path><path fill="#ba0f27" d="M 563 133.2 L 567 137.2 563 141.2 559 137.2 Z"></path><path fill="#ba0f27" d="M 488 139.73333333333335 L 492 143.73333333333335 488 147.73333333333335 484 143.73333333333335 Z"></path><path fill="#ba0f27" d="M 413 143 L 417 147 413 151 409 147 Z"></path><path fill="#ba0f27" d="M 337 175.66666666666666 L 341 179.66666666666666 337 183.66666666666666 333 179.66666666666666 Z"></path><path fill="#ba0f27" d="M 262 133.2 L 266 137.2 262 141.2 258 137.2 Z"></path><path fill="#ba0f27" d="M 187 120.13333333333334 L 191 124.13333333333334 187 128.13333333333333 183 124.13333333333334 Z"></path><path fill="#ba0f27" d="M 112 120.13333333333334 L 116 124.13333333333334 112 128.13333333333333 108 124.13333333333334 Z"></path><path fill="#ba0f27" d="M 37 97.26666666666667 L 41 101.26666666666667 37 105.26666666666667 33 101.26666666666667 Z"></path></g></g><text x="520" text-anchor="middle" class="highcharts-title"  style="color:#777;font-size:18px;fill:#777;width:976px;" y="24"><tspan style="fill:#ba0f27;font-size:24px;font-weight:bold;font-family: 'lora'">Number of people who drowned by falling into a pool</tspan><tspan style="font-family: 'lora'" x="520" dy="21"> correlates with </tspan><tspan style="fill:#000000;font-size:24px;font-weight:bold;font-family: 'lora'" x="520" dy="29">Films Nicolas Cage appeared in</tspan></text><g class="highcharts-legend"  transform="translate(364,367)"><g ><g><g class="highcharts-legend-item"  transform="translate(8,3)"><path fill="none" d="M 0 11 L 16 11" stroke="#000000" stroke-width="2"></path><path fill="#000000" d="M 8 7 C 13.328 7 13.328 15 8 15 C 2.6719999999999997 15 2.6719999999999997 7 8 7 Z"></path><text x="21" style="color:#333333;font-size:12px;font-weight:bold;cursor:pointer;fill:#333333;" text-anchor="start"  y="15"><tspan>Nicholas Cage</tspan></text></g><g class="highcharts-legend-item"  transform="translate(130.046875,3)"><path fill="none" d="M 0 11 L 16 11" stroke="#ba0f27" stroke-width="2"></path><path fill="#ba0f27" d="M 8 7 L 12 11 8 15 4 11 Z"></path><text x="21" y="15" style="color:#333333;font-size:12px;font-weight:bold;cursor:pointer;fill:#333333;" text-anchor="start" ><tspan>Swimming pool drownings</tspan></text></g></g></g></g><g class="highcharts-axis-labels highcharts-xaxis-labels" ><text x="165.54545454545456" style="color:#000000;cursor:default;font-size:11px;fill:#000000;width:75.0909090909091;text-overflow:ellipsis;" text-anchor="middle" transform="translate(0,0)" y="351" opacity="1"><tspan>1999</tspan></text><text x="240.63636363636363" style="color:#000000;cursor:default;font-size:11px;fill:#000000;width:75.0909090909091;text-overflow:ellipsis;" text-anchor="middle" transform="translate(0,0)" y="351" opacity="1"><tspan>2000</tspan></text><text x="315.72727272727275" style="color:#000000;cursor:default;font-size:11px;fill:#000000;width:75.0909090909091;text-overflow:ellipsis;" text-anchor="middle" transform="translate(0,0)" y="351" opacity="1"><tspan>2001</tspan></text><text x="390.8181818181818" style="color:#000000;cursor:default;font-size:11px;fill:#000000;width:75.0909090909091;text-overflow:ellipsis;" text-anchor="middle" transform="translate(0,0)" y="351" opacity="1"><tspan>2002</tspan></text><text x="465.90909090909093" style="color:#000000;cursor:default;font-size:11px;fill:#000000;width:75.0909090909091;text-overflow:ellipsis;" text-anchor="middle" transform="translate(0,0)" y="351" opacity="1"><tspan>2003</tspan></text><text x="541" style="color:#000000;cursor:default;font-size:11px;fill:#000000;width:75.0909090909091;text-overflow:ellipsis;" text-anchor="middle" transform="translate(0,0)" y="351" opacity="1"><tspan>2004</tspan></text><text x="616.0909090909091" style="color:#000000;cursor:default;font-size:11px;fill:#000000;width:75.0909090909091;text-overflow:ellipsis;" text-anchor="middle" transform="translate(0,0)" y="351" opacity="1"><tspan>2005</tspan></text><text x="691.1818181818182" style="color:#000000;cursor:default;font-size:11px;fill:#000000;width:75.0909090909091;text-overflow:ellipsis;" text-anchor="middle" transform="translate(0,0)" y="351" opacity="1"><tspan>2006</tspan></text><text x="766.2727272727273" style="color:#000000;cursor:default;font-size:11px;fill:#000000;width:75.0909090909091;text-overflow:ellipsis;" text-anchor="middle" transform="translate(0,0)" y="351" opacity="1"><tspan>2007</tspan></text><text x="841.3636363636364" style="color:#000000;cursor:default;font-size:11px;fill:#000000;width:75.0909090909091;text-overflow:ellipsis;" text-anchor="middle" transform="translate(0,0)" y="351" opacity="1"><tspan>2008</tspan></text><text x="916.4545454545455" style="color:#000000;cursor:default;font-size:11px;fill:#000000;width:75.0909090909091;text-overflow:ellipsis;" text-anchor="middle" transform="translate(0,0)" y="351" opacity="1"><tspan>2009</tspan></text></g><g class="highcharts-axis-labels highcharts-xaxis-labels" ><text x="165.54545454545456" style="color:#ba0f27;cursor:default;font-size:11px;fill:#ba0f27;width:75.0909090909091;text-overflow:ellipsis;" text-anchor="middle" transform="translate(0,0)" y="121" opacity="1"><tspan>1999</tspan></text><text x="240.63636363636363" style="color:#ba0f27;cursor:default;font-size:11px;fill:#ba0f27;width:75.0909090909091;text-overflow:ellipsis;" text-anchor="middle" transform="translate(0,0)" y="121" opacity="1"><tspan>2000</tspan></text><text x="315.72727272727275" style="color:#ba0f27;cursor:default;font-size:11px;fill:#ba0f27;width:75.0909090909091;text-overflow:ellipsis;" text-anchor="middle" transform="translate(0,0)" y="121" opacity="1"><tspan>2001</tspan></text><text x="390.8181818181818" style="color:#ba0f27;cursor:default;font-size:11px;fill:#ba0f27;width:75.0909090909091;text-overflow:ellipsis;" text-anchor="middle" transform="translate(0,0)" y="121" opacity="1"><tspan>2002</tspan></text><text x="465.90909090909093" style="color:#ba0f27;cursor:default;font-size:11px;fill:#ba0f27;width:75.0909090909091;text-overflow:ellipsis;" text-anchor="middle" transform="translate(0,0)" y="121" opacity="1"><tspan>2003</tspan></text><text x="541" style="color:#ba0f27;cursor:default;font-size:11px;fill:#ba0f27;width:75.0909090909091;text-overflow:ellipsis;" text-anchor="middle" transform="translate(0,0)" y="121" opacity="1"><tspan>2004</tspan></text><text x="616.0909090909091" style="color:#ba0f27;cursor:default;font-size:11px;fill:#ba0f27;width:75.0909090909091;text-overflow:ellipsis;" text-anchor="middle" transform="translate(0,0)" y="121" opacity="1"><tspan>2005</tspan></text><text x="691.1818181818182" style="color:#ba0f27;cursor:default;font-size:11px;fill:#ba0f27;width:75.0909090909091;text-overflow:ellipsis;" text-anchor="middle" transform="translate(0,0)" y="121" opacity="1"><tspan>2006</tspan></text><text x="766.2727272727273" style="color:#ba0f27;cursor:default;font-size:11px;fill:#ba0f27;width:75.0909090909091;text-overflow:ellipsis;" text-anchor="middle" transform="translate(0,0)" y="121" opacity="1"><tspan>2007</tspan></text><text x="841.3636363636364" style="color:#ba0f27;cursor:default;font-size:11px;fill:#ba0f27;width:75.0909090909091;text-overflow:ellipsis;" text-anchor="middle" transform="translate(0,0)" y="121" opacity="1"><tspan>2008</tspan></text><text x="916.4545454545455" style="color:#ba0f27;cursor:default;font-size:11px;fill:#ba0f27;width:75.0909090909091;text-overflow:ellipsis;" text-anchor="middle" transform="translate(0,0)" y="121" opacity="1"><tspan>2009</tspan></text></g><g class="highcharts-axis-labels highcharts-yaxis-labels" ><text x="969" style="color:#000000;cursor:default;font-size:11px;fill:#000000;width:333px;text-overflow:clip;" text-anchor="start" transform="translate(0,0)" y="336" opacity="1"><tspan>0 films</tspan></text><text x="969" style="color:#000000;cursor:default;font-size:11px;fill:#000000;width:333px;text-overflow:clip;" text-anchor="start" transform="translate(0,0)" y="270" opacity="1"><tspan>2 films</tspan></text><text x="969" style="color:#000000;cursor:default;font-size:11px;fill:#000000;width:333px;text-overflow:clip;" text-anchor="start" transform="translate(0,0)" y="205" opacity="1"><tspan>4 films</tspan></text><text x="969" style="color:#000000;cursor:default;font-size:11px;fill:#000000;width:333px;text-overflow:clip;" text-anchor="start" transform="translate(0,0)" y="140" opacity="1"><tspan>6 films</tspan></text></g><g class="highcharts-axis-labels highcharts-yaxis-labels" ><text x="113" style="color:#ba0f27;cursor:default;font-size:11px;fill:#ba0f27;width:333px;text-overflow:clip;" text-anchor="end" transform="translate(0,0)" y="336" opacity="1"><tspan>80 drownings</tspan></text><text x="113" style="color:#ba0f27;cursor:default;font-size:11px;fill:#ba0f27;width:333px;text-overflow:clip;" text-anchor="end" transform="translate(0,0)" y="270" opacity="1"><tspan>100 drownings</tspan></text><text x="113" style="color:#ba0f27;cursor:default;font-size:11px;fill:#ba0f27;width:333px;text-overflow:clip;" text-anchor="end" transform="translate(0,0)" y="205" opacity="1"><tspan>120 drownings</tspan></text><text x="113" style="color:#ba0f27;cursor:default;font-size:11px;fill:#ba0f27;width:333px;text-overflow:clip;" text-anchor="end" transform="translate(0,0)" y="140" opacity="1"><tspan>140 drownings</tspan></text></g><g class="highcharts-tooltip"  style="cursor:default;padding:0;white-space:nowrap;" transform="translate(0,-9999)"><path fill="none" d="M 3 0 L 13 0 C 16 0 16 0 16 3 L 16 13 C 16 16 16 16 13 16 L 3 16 C 0 16 0 16 0 13 L 0 3 C 0 0 0 0 3 0"  stroke="black" stroke-opacity="0.049999999999999996" stroke-width="5" transform="translate(1, 1)"></path><path fill="none" d="M 3 0 L 13 0 C 16 0 16 0 16 3 L 16 13 C 16 16 16 16 13 16 L 3 16 C 0 16 0 16 0 13 L 0 3 C 0 0 0 0 3 0"  stroke="black" stroke-opacity="0.09999999999999999" stroke-width="3" transform="translate(1, 1)"></path><path fill="none" d="M 3 0 L 13 0 C 16 0 16 0 16 3 L 16 13 C 16 16 16 16 13 16 L 3 16 C 0 16 0 16 0 13 L 0 3 C 0 0 0 0 3 0"  stroke="black" stroke-opacity="0.15" stroke-width="1" transform="translate(1, 1)"></path><path fill="rgb(249, 249, 249)" fill-opacity=" .85" d="M 3 0 L 13 0 C 16 0 16 0 16 3 L 16 13 C 16 16 16 16 13 16 L 3 16 C 0 16 0 16 0 13 L 0 3 C 0 0 0 0 3 0"></path><text x="8"  style="font-size:12px;color:#333333;fill:#333333;" transform="translate(0,20)"></text></g><text x="1030" text-anchor="end"  style="cursor:pointer;color:#909090;font-size:9px;fill:#909090;" y="405">tylervigen.com</text></svg>